# xmcd
#
# Track frame offsets:
#	150
#	14883
#	29082
#	47459
#	68191
#	88344
#	117854
#	135814
#	158857
#	181692
#	213765
#	236612
#	265798
#
# Disc length: 3755 seconds
#
# Revision: 0
# Processed by: cddbd v1.5.2PL0 Copyright (c) Steve Scherf et al.
# Submitted via: EasyCDDAExtractor 10.0.2.1
#
DISCID=ac0ea90d
DTITLE=Scorpions - Mega Summer Festival Augsburg 21-07-07 Master Disc 1
DYEAR=2007
DGENRE=Hard Rock
TTITLE0=Intro
TTITLE1=Hour 1
TTITLE2=Bad Boys Running Wild
TTITLE3=The Game Of Life
TTITLE4=Lovin`Or Living
TTITLE5=The Zoo
TTITLE6=Deep And Dark
TTITLE7=Coast To Coast
TTITLE8=Send Me An Angel
TTITLE9=Holiday
TTITLE10=Humanity
TTITLE11=We`ll Burn The Sky
TTITLE12=I`m Leaving you
EXTD=
EXTT0=
EXTT1=
EXTT2=
EXTT3=
EXTT4=
EXTT5=
EXTT6=
EXTT7=
EXTT8=
EXTT9=
EXTT10=
EXTT11=
EXTT12=
PLAYORDER=
